<?xml version="1.0" encoding="utf-8"?>
<!-- Generator: Adobe Illustrator 16.0.0, SVG Export Plug-In . SVG Version: 6.00 Build 0)  -->
<!DOCTYPE svg PUBLIC "-//W3C//DTD SVG 1.1//EN" "http://www.w3.org/Graphics/SVG/1.1/DTD/svg11.dtd">
<svg version="1.1" id="Layer_1" xmlns="http://www.w3.org/2000/svg" xmlns:xlink="http://www.w3.org/1999/xlink" x="0px" y="0px"
	 width="500px" height="500px" viewBox="0 0 500 500" enable-background="new 0 0 500 500" xml:space="preserve">
<g id="Footer">
</g>
<path d="M442.611,382.794L309.817,250.001l132.793-132.794c16.519-16.521,16.519-43.297-0.001-59.816
	c-16.519-16.521-43.296-16.521-59.816-0.001L250,190.184L117.207,57.39c-16.52-16.52-43.296-16.52-59.816,0.001
	C40.87,73.91,40.87,100.687,57.39,117.207l132.794,132.794L57.39,382.794c-16.52,16.52-16.52,43.297,0,59.816s43.297,16.52,59.816,0
	L250,309.817L382.794,442.61c16.52,16.52,43.297,16.52,59.816,0S459.13,399.313,442.611,382.794z"/>
</svg>
