<?xml version="1.0" encoding="utf-8"?>
<!-- Generator: Adobe Illustrator 16.0.0, SVG Export Plug-In . SVG Version: 6.00 Build 0)  -->
<!DOCTYPE svg PUBLIC "-//W3C//DTD SVG 1.1//EN" "http://www.w3.org/Graphics/SVG/1.1/DTD/svg11.dtd">
<svg version="1.1" id="Layer_1" xmlns="http://www.w3.org/2000/svg" xmlns:xlink="http://www.w3.org/1999/xlink" x="0px" y="0px"
	 width="500px" height="500px" viewBox="0 0 500 500" enable-background="new 0 0 500 500" xml:space="preserve">
<g id="Footer">
</g>
<path d="M461.181,211.181H38.819C17.377,211.181,0,228.558,0,250s17.377,38.82,38.819,38.82h422.361
	C482.623,288.82,500,271.442,500,250S482.623,211.181,461.181,211.181z M461.181,377.33H38.819C17.377,377.33,0,394.707,0,416.149
	s17.377,38.82,38.819,38.82h422.361c21.442,0,38.819-17.378,38.819-38.82S482.623,377.33,461.181,377.33z M38.819,122.671h422.361
	c21.442,0,38.819-17.378,38.819-38.82s-17.377-38.82-38.819-38.82H38.819C17.377,45.031,0,62.409,0,83.851
	S17.377,122.671,38.819,122.671z"/>
</svg>
